<svg xmlns="http://www.w3.org/2000/svg" xmlns:xlink="http://www.w3.org/1999/xlink" width="240" zoomAndPan="magnify" viewBox="0 0 180 48.75" height="65" preserveAspectRatio="xMidYMid meet" version="1.0"><defs><g/><clipPath id="c1b7d2a9c9"><path d="M 0.460938 10.890625 L 26.574219 10.890625 L 26.574219 37.007812 L 0.460938 37.007812 Z M 0.460938 10.890625 " clip-rule="nonzero"/></clipPath></defs><g clip-path="url(#c1b7d2a9c9)"><path fill="#f9ef23" d="M 13.585938 24.019531 L 20.152344 30.582031 L 7.023438 30.582031 L 7.023438 17.453125 L 13.585938 24.019531 L 13.585938 10.890625 L 26.714844 24.019531 Z M 0.460938 37.148438 L 13.585938 37.148438 L 0.460938 24.019531 Z M 23.652344 17.636719 C 25.335938 17.636719 26.699219 16.273438 26.699219 14.589844 C 26.699219 12.910156 25.335938 11.542969 23.652344 11.542969 C 21.972656 11.542969 20.605469 12.910156 20.605469 14.589844 C 20.605469 16.273438 21.972656 17.636719 23.652344 17.636719 Z M 23.652344 17.636719 " fill-opacity="1" fill-rule="nonzero"/></g><g fill="#ffffff" fill-opacity="1"><g transform="translate(37.726859, 32.229702)"><g><path d="M 0.34375 0 L 2.234375 -19.65625 L 8.890625 -19.65625 L 10.78125 0 L 7.046875 0 L 6.765625 -3.171875 L 4.390625 -3.171875 L 4.15625 0 Z M 4.6875 -6.3125 L 6.46875 -6.3125 L 5.609375 -16.3125 L 5.421875 -16.3125 Z M 4.6875 -6.3125 "/></g></g></g><g fill="#ffffff" fill-opacity="1"><g transform="translate(48.821202, 32.229702)"><g><path d="M 5.53125 0.1875 C 3.75 0.1875 2.460938 -0.253906 1.671875 -1.140625 C 0.878906 -2.023438 0.484375 -3.453125 0.484375 -5.421875 L 0.484375 -7.34375 L 4.34375 -7.34375 L 4.34375 -4.890625 C 4.34375 -3.921875 4.65625 -3.4375 5.28125 -3.4375 C 5.632812 -3.4375 5.878906 -3.535156 6.015625 -3.734375 C 6.148438 -3.941406 6.21875 -4.289062 6.21875 -4.78125 C 6.21875 -5.414062 6.140625 -5.941406 5.984375 -6.359375 C 5.835938 -6.785156 5.644531 -7.140625 5.40625 -7.421875 C 5.175781 -7.703125 4.753906 -8.140625 4.140625 -8.734375 L 2.453125 -10.4375 C 1.140625 -11.71875 0.484375 -13.132812 0.484375 -14.6875 C 0.484375 -16.363281 0.867188 -17.640625 1.640625 -18.515625 C 2.410156 -19.390625 3.535156 -19.828125 5.015625 -19.828125 C 6.773438 -19.828125 8.046875 -19.359375 8.828125 -18.421875 C 9.609375 -17.484375 10 -16.015625 10 -14.015625 L 6 -14.015625 L 5.96875 -15.375 C 5.96875 -15.632812 5.894531 -15.835938 5.75 -15.984375 C 5.601562 -16.140625 5.398438 -16.21875 5.140625 -16.21875 C 4.835938 -16.21875 4.609375 -16.132812 4.453125 -15.96875 C 4.304688 -15.800781 4.234375 -15.570312 4.234375 -15.28125 C 4.234375 -14.632812 4.597656 -13.972656 5.328125 -13.296875 L 7.625 -11.09375 C 8.15625 -10.570312 8.59375 -10.078125 8.9375 -9.609375 C 9.289062 -9.148438 9.570312 -8.601562 9.78125 -7.96875 C 10 -7.332031 10.109375 -6.582031 10.109375 -5.71875 C 10.109375 -3.78125 9.753906 -2.3125 9.046875 -1.3125 C 8.335938 -0.3125 7.164062 0.1875 5.53125 0.1875 Z M 5.53125 0.1875 "/></g></g></g><g fill="#ffffff" fill-opacity="1"><g transform="translate(59.36655, 32.229702)"><g><path d="M 2.5625 0 L 2.5625 -15.875 L 0.234375 -15.875 L 0.234375 -19.65625 L 8.828125 -19.65625 L 8.828125 -15.875 L 6.5 -15.875 L 6.5 0 Z M 2.5625 0 "/></g></g></g><g fill="#ffffff" fill-opacity="1"><g transform="translate(68.425026, 32.229702)"><g><path d="M 0.875 -19.65625 L 6.90625 -19.65625 C 7.863281 -19.65625 8.601562 -19.4375 9.125 -19 C 9.65625 -18.5625 10.015625 -17.945312 10.203125 -17.15625 C 10.390625 -16.375 10.484375 -15.375 10.484375 -14.15625 C 10.484375 -13.039062 10.335938 -12.171875 10.046875 -11.546875 C 9.753906 -10.921875 9.25 -10.488281 8.53125 -10.25 C 9.125 -10.125 9.550781 -9.820312 9.8125 -9.34375 C 10.082031 -8.875 10.21875 -8.238281 10.21875 -7.4375 L 10.171875 0 L 6.34375 0 L 6.34375 -7.6875 C 6.34375 -8.238281 6.234375 -8.585938 6.015625 -8.734375 C 5.804688 -8.890625 5.414062 -8.96875 4.84375 -8.96875 L 4.84375 0 L 0.875 0 Z M 5.8125 -12.375 C 6.363281 -12.375 6.640625 -12.96875 6.640625 -14.15625 C 6.640625 -14.675781 6.613281 -15.066406 6.5625 -15.328125 C 6.519531 -15.585938 6.4375 -15.765625 6.3125 -15.859375 C 6.1875 -15.960938 6.007812 -16.015625 5.78125 -16.015625 L 4.875 -16.015625 L 4.875 -12.375 Z M 5.8125 -12.375 "/></g></g></g><g fill="#ffffff" fill-opacity="1"><g transform="translate(79.336378, 32.229702)"><g><path d="M 0.34375 0 L 2.234375 -19.65625 L 8.890625 -19.65625 L 10.78125 0 L 7.046875 0 L 6.765625 -3.171875 L 4.390625 -3.171875 L 4.15625 0 Z M 4.6875 -6.3125 L 6.46875 -6.3125 L 5.609375 -16.3125 L 5.421875 -16.3125 Z M 4.6875 -6.3125 "/></g></g></g><g fill="#ffffff" fill-opacity="1"><g transform="translate(90.430722, 32.229702)"><g><path d="M 0.875 0 L 0.875 -19.65625 L 8.734375 -19.65625 L 8.734375 -15.859375 L 4.875 -15.859375 L 4.875 -12.03125 L 8.578125 -12.03125 L 8.578125 -8.328125 L 4.875 -8.328125 L 4.875 -3.8125 L 8.984375 -3.8125 L 8.984375 0 Z M 0.875 0 "/></g></g></g><g fill="#ffffff" fill-opacity="1"><g transform="translate(99.855203, 32.229702)"><g><path d="M 5.421875 0.1875 C 3.804688 0.1875 2.601562 -0.269531 1.8125 -1.1875 C 1.03125 -2.101562 0.640625 -3.460938 0.640625 -5.265625 L 0.640625 -19.65625 L 4.453125 -19.65625 L 4.453125 -5.421875 C 4.453125 -4.796875 4.515625 -4.304688 4.640625 -3.953125 C 4.765625 -3.609375 5.023438 -3.4375 5.421875 -3.4375 C 5.816406 -3.4375 6.070312 -3.601562 6.1875 -3.9375 C 6.3125 -4.28125 6.375 -4.773438 6.375 -5.421875 L 6.375 -19.65625 L 10.203125 -19.65625 L 10.203125 -5.265625 C 10.203125 -3.460938 9.804688 -2.101562 9.015625 -1.1875 C 8.234375 -0.269531 7.035156 0.1875 5.421875 0.1875 Z M 5.421875 0.1875 "/></g></g></g><g fill="#ffffff" fill-opacity="1"><g transform="translate(110.697922, 32.229702)"><g><path d="M 5.53125 0.1875 C 3.75 0.1875 2.460938 -0.253906 1.671875 -1.140625 C 0.878906 -2.023438 0.484375 -3.453125 0.484375 -5.421875 L 0.484375 -7.34375 L 4.34375 -7.34375 L 4.34375 -4.890625 C 4.34375 -3.921875 4.65625 -3.4375 5.28125 -3.4375 C 5.632812 -3.4375 5.878906 -3.535156 6.015625 -3.734375 C 6.148438 -3.941406 6.21875 -4.289062 6.21875 -4.78125 C 6.21875 -5.414062 6.140625 -5.941406 5.984375 -6.359375 C 5.835938 -6.785156 5.644531 -7.140625 5.40625 -7.421875 C 5.175781 -7.703125 4.753906 -8.140625 4.140625 -8.734375 L 2.453125 -10.4375 C 1.140625 -11.71875 0.484375 -13.132812 0.484375 -14.6875 C 0.484375 -16.363281 0.867188 -17.640625 1.640625 -18.515625 C 2.410156 -19.390625 3.535156 -19.828125 5.015625 -19.828125 C 6.773438 -19.828125 8.046875 -19.359375 8.828125 -18.421875 C 9.609375 -17.484375 10 -16.015625 10 -14.015625 L 6 -14.015625 L 5.96875 -15.375 C 5.96875 -15.632812 5.894531 -15.835938 5.75 -15.984375 C 5.601562 -16.140625 5.398438 -16.21875 5.140625 -16.21875 C 4.835938 -16.21875 4.609375 -16.132812 4.453125 -15.96875 C 4.304688 -15.800781 4.234375 -15.570312 4.234375 -15.28125 C 4.234375 -14.632812 4.597656 -13.972656 5.328125 -13.296875 L 7.625 -11.09375 C 8.15625 -10.570312 8.59375 -10.078125 8.9375 -9.609375 C 9.289062 -9.148438 9.570312 -8.601562 9.78125 -7.96875 C 10 -7.332031 10.109375 -6.582031 10.109375 -5.71875 C 10.109375 -3.78125 9.753906 -2.3125 9.046875 -1.3125 C 8.335938 -0.3125 7.164062 0.1875 5.53125 0.1875 Z M 5.53125 0.1875 "/></g></g></g><g fill="#ffffff" fill-opacity="1"><g transform="translate(121.243269, 32.229702)"><g/></g></g><g fill="#ffffff" fill-opacity="1"><g transform="translate(126.596007, 32.229702)"><g><path d="M 4.921875 0.1875 C 3.503906 0.1875 2.445312 -0.3125 1.75 -1.3125 C 1.050781 -2.3125 0.703125 -3.828125 0.703125 -5.859375 L 0.703125 -14.3125 C 0.703125 -16.132812 1.109375 -17.507812 1.921875 -18.4375 C 2.734375 -19.363281 3.9375 -19.828125 5.53125 -19.828125 C 6.832031 -19.828125 7.835938 -19.566406 8.546875 -19.046875 C 9.265625 -18.535156 9.757812 -17.78125 10.03125 -16.78125 C 10.3125 -15.789062 10.453125 -14.519531 10.453125 -12.96875 L 6.609375 -12.96875 L 6.609375 -14.734375 C 6.609375 -15.203125 6.539062 -15.566406 6.40625 -15.828125 C 6.28125 -16.085938 6.050781 -16.21875 5.71875 -16.21875 C 4.96875 -16.21875 4.59375 -15.726562 4.59375 -14.75 L 4.59375 -5.234375 C 4.59375 -4.640625 4.671875 -4.191406 4.828125 -3.890625 C 4.984375 -3.585938 5.25 -3.4375 5.625 -3.4375 C 6.007812 -3.4375 6.273438 -3.585938 6.421875 -3.890625 C 6.578125 -4.191406 6.65625 -4.640625 6.65625 -5.234375 L 6.65625 -8.046875 L 5.609375 -8.046875 L 5.609375 -11.4375 L 10.40625 -11.4375 L 10.40625 0 L 8.828125 0 L 8.171875 -1.640625 C 7.460938 -0.421875 6.378906 0.1875 4.921875 0.1875 Z M 4.921875 0.1875 "/></g></g></g><g fill="#ffffff" fill-opacity="1"><g transform="translate(137.69035, 32.229702)"><g><path d="M 3.25 0 L 3.25 -6.46875 L 0.109375 -19.65625 L 4 -19.65625 L 5.09375 -13 L 6.203125 -19.65625 L 10.09375 -19.65625 L 6.953125 -6.46875 L 6.953125 0 Z M 3.25 0 "/></g></g></g><g fill="#ffffff" fill-opacity="1"><g transform="translate(147.892578, 32.229702)"><g><path d="M 0.875 0 L 0.875 -19.65625 L 6.859375 -19.65625 L 8.515625 -7.65625 L 10.15625 -19.65625 L 16.203125 -19.65625 L 16.203125 0 L 12.609375 0 L 12.609375 -14.15625 L 10.34375 0 L 6.8125 0 L 4.421875 -14.15625 L 4.421875 0 Z M 0.875 0 "/></g></g></g></svg>